<svg width="803" height="132" viewBox="0 0 803 132" fill="none" xmlns="http://www.w3.org/2000/svg">
<path d="M733.322 129.32V115.607H746.087C747.06 115.607 747.789 115.364 748.275 114.878C748.81 114.391 749.297 113.565 749.734 112.398L754.402 99.341L753.162 106.343L719.828 22.0959H740.106L762.28 89.2021L759.873 88.7645L781.974 22.0959H802.106L765.125 117.941C763.569 121.929 761.283 124.822 758.268 126.621C755.253 128.42 751.825 129.32 747.984 129.32H733.322Z" fill="black"/>
<path d="M674.246 102.701C669.141 102.701 664.545 101.777 660.46 99.929C656.376 98.0811 653.142 95.4066 650.759 91.9054C648.376 88.3556 647.185 84.125 647.185 79.2136C647.185 73.9131 648.717 69.2935 651.78 65.3546C654.893 61.3672 659.464 58.2793 665.493 56.0911C671.572 53.9028 679.085 52.8087 688.032 52.8087H699.849L698.536 54.5593V50.1099C698.536 44.469 697.466 40.2141 695.326 37.3451C693.187 34.476 689.637 33.0415 684.677 33.0415C679.96 33.0415 676.337 34.2815 673.809 36.7615C671.28 39.2416 669.821 42.6698 669.432 47.0463L650.54 43.4722C651.173 39.1443 652.923 35.2298 655.792 31.7286C658.71 28.2274 662.673 25.4313 667.682 23.3403C672.69 21.2493 678.72 20.2038 685.771 20.2038C692.482 20.2038 698.098 21.3466 702.621 23.6321C707.143 25.9176 710.523 29.4674 712.76 34.2815C715.045 39.0471 716.188 45.2228 716.188 52.8087V83.1524C716.188 84.7571 716.407 85.8269 716.844 86.3618C717.331 86.8967 718.327 87.1642 719.835 87.1642H723.774V100.877H714.364C709.599 100.877 705.879 99.6129 703.204 97.0842C700.53 94.507 699.192 90.9815 699.192 86.5077V82.0583L702.256 82.9336C701.575 85.0246 700.578 87.2128 699.265 89.4983C697.952 91.7838 696.202 93.9234 694.014 95.9172C691.825 97.9109 689.102 99.5399 685.844 100.804C682.635 102.069 678.769 102.701 674.246 102.701ZM679.206 89.6442C682.854 89.6442 686.136 88.7932 689.054 87.0912C692.02 85.3406 694.354 82.6904 696.056 79.1406C697.807 75.5422 698.682 71.0198 698.682 65.5735V64.2605H688.324C682.635 64.2605 678.185 65.0143 674.976 66.5217C671.766 67.9805 669.505 69.8041 668.192 71.9923C666.879 74.132 666.223 76.2716 666.223 78.4112C666.223 80.259 666.636 82.0583 667.463 83.8089C668.338 85.5108 669.724 86.921 671.62 88.0395C673.517 89.1093 676.046 89.6442 679.206 89.6442Z" fill="black"/>
<path d="M565.391 129.318V22.0943H582.459V38.1414L582.167 36.9744C584.647 31.2363 588.246 27.03 592.963 24.3555C597.679 21.6323 602.834 20.2708 608.426 20.2708C614.991 20.2708 620.68 21.9241 625.494 25.2308C630.357 28.5375 634.126 33.2787 636.8 39.4544C639.475 45.6301 640.812 53.0215 640.812 61.6286C640.812 70.1385 639.451 77.4813 636.727 83.657C634.053 89.7841 630.284 94.501 625.422 97.8076C620.559 101.066 614.821 102.695 608.207 102.695C602.664 102.695 597.509 101.382 592.744 98.7559C588.027 96.0814 584.307 91.7049 581.584 85.6264L583.261 85.2617V129.318H565.391ZM602.153 88.69C607.94 88.69 612.608 86.2829 616.158 81.4687C619.708 76.6546 621.483 69.8953 621.483 61.191C621.483 52.6811 619.756 46.0678 616.304 41.3509C612.851 36.634 608.183 34.2755 602.299 34.2755C598.701 34.2755 595.394 35.2481 592.379 37.1932C589.413 39.0897 587.054 42.056 585.304 46.0921C583.553 50.0795 582.678 55.1611 582.678 61.3369C582.678 70.4789 584.55 77.3354 588.294 81.9064C592.087 86.4288 596.707 88.69 602.153 88.69Z" fill="black"/>
<path d="M517.91 102.695C510.276 102.695 503.517 101.017 497.633 97.6618C491.749 94.3064 487.129 89.5409 483.774 83.3652C480.418 77.1895 478.741 69.8953 478.741 61.4827C478.741 53.0701 480.394 45.776 483.701 39.6003C487.007 33.4245 491.578 28.659 497.414 25.3037C503.249 21.9484 509.984 20.2708 517.619 20.2708C521.898 20.2708 526.201 20.9272 530.529 22.2402C534.906 23.5531 538.893 25.8873 542.492 29.2426C546.139 32.5492 549.081 37.1446 551.318 43.0285C553.554 48.8638 554.673 56.2796 554.673 65.2757H490.338V53.8239H538.626L535.854 57.9815C535.562 52.0976 534.541 47.3807 532.79 43.8309C531.088 40.2324 528.876 37.6308 526.153 36.0261C523.478 34.3728 520.488 33.5461 517.181 33.5461C512.999 33.5461 509.473 34.6889 506.604 36.9744C503.735 39.2112 501.547 42.445 500.04 46.6756C498.581 50.8576 497.851 55.8176 497.851 61.5557C497.851 70.1142 499.529 76.8248 502.884 81.6876C506.24 86.5017 511.2 88.9088 517.764 88.9088C522.238 88.9088 526.056 87.766 529.216 85.4805C532.377 83.195 534.736 79.7911 536.292 75.2687L553.068 79.937C551.172 85.0429 548.473 89.2735 544.972 92.6288C541.47 95.9841 537.386 98.5127 532.717 100.215C528.049 101.868 523.114 102.695 517.91 102.695Z" fill="black"/>
<path d="M435.329 131.15C422.977 131.15 413.835 129.472 407.903 126.117C402.019 122.81 399.077 117.68 399.077 110.726C399.077 106.593 400.122 103.116 402.213 100.296C404.353 97.4754 407.538 95.3601 411.768 93.9499C409.969 92.7342 408.51 91.1781 407.392 89.2816C406.322 87.3851 405.787 85.3184 405.787 83.0816C405.787 80.2125 406.687 77.6839 408.486 75.4956C410.285 73.2588 412.838 71.6541 416.145 70.6815C412.303 68.3474 409.288 65.2595 407.1 61.4179C404.961 57.5277 403.891 53.054 403.891 47.9967C403.891 42.4045 405.228 37.5417 407.903 33.4084C410.626 29.2264 414.419 25.9926 419.281 23.7071C424.193 21.4216 429.955 20.2789 436.569 20.2789C443.182 20.2789 448.944 21.4216 453.856 23.7071C458.767 25.9926 462.584 29.2264 465.308 33.4084C468.031 37.5417 469.392 42.4531 469.392 48.1426C469.392 53.6861 468.031 58.5246 465.308 62.6579C462.633 66.7913 458.816 70.0007 453.856 72.2862C448.896 74.5717 443.085 75.7145 436.423 75.7145H430.514C425.214 75.7145 422.564 77.1976 422.564 80.1639C422.564 83.0329 425.19 84.4675 430.442 84.4675H446.343C452.032 84.4675 456.773 85.1482 460.566 86.5098C464.359 87.8714 467.35 89.6706 469.538 91.9075C471.775 94.1444 473.355 96.6487 474.279 99.4205C475.252 102.192 475.738 104.988 475.738 107.809C475.738 115.735 472.723 121.595 466.693 125.388C460.664 129.229 451.351 131.15 438.757 131.15H435.329ZM435.62 118.896H438.976C451.23 118.896 457.357 115.224 457.357 107.882C457.357 104.964 456.263 102.557 454.075 100.66C451.935 98.7154 448.093 97.7428 442.55 97.7428H431.025C427.281 97.7428 424.023 98.5695 421.251 100.223C418.528 101.828 417.166 104.526 417.166 108.319C417.166 111.869 418.674 114.519 421.689 116.27C424.703 118.021 429.347 118.896 435.62 118.896ZM436.569 64.0438C441.577 64.0438 445.419 62.6579 448.093 59.8862C450.768 57.1144 452.105 53.1998 452.105 48.1426C452.105 43.0853 450.768 39.1464 448.093 36.326C445.419 33.457 441.577 32.0225 436.569 32.0225C431.609 32.0225 427.791 33.4327 425.117 36.2531C422.442 39.0735 421.105 43.0366 421.105 48.1426C421.105 53.1998 422.442 57.1144 425.117 59.8862C427.791 62.6579 431.609 64.0438 436.569 64.0438ZM448.75 30.4177V22.4671C448.75 17.9934 450.16 14.4922 452.98 11.9635C455.801 9.38626 459.618 8.09763 464.432 8.09763H472.748V21.8106H464.359C462.852 21.8106 461.855 22.0781 461.369 22.613C460.931 23.1479 460.712 24.242 460.712 25.8954V30.4177H448.75Z" fill="black"/>
<path d="M350.64 100.871V22.0943H367.927V39.4544L367.271 37.2661C369.702 31.5767 373.203 27.3218 377.774 24.5014C382.345 21.681 387.208 20.2708 392.363 20.2708C393.822 20.2708 395.28 20.3923 396.739 20.6355C398.247 20.8786 399.681 21.2919 401.043 21.8755L399.438 37.7038C396.472 36.8285 393.578 36.3908 390.758 36.3908C388.667 36.3908 386.333 36.7799 383.756 37.5579C381.227 38.2873 378.82 39.6732 376.534 41.7156C374.249 43.7579 372.352 46.6999 370.845 50.5415C369.386 54.3345 368.657 59.2702 368.657 65.3486V100.871H350.64Z" fill="black"/>
<path d="M292.058 102.696C286.222 102.696 281.311 101.383 277.324 98.7574C273.385 96.0829 270.418 92.3386 268.425 87.5244C266.431 82.7103 265.434 77.1181 265.434 70.7479V22.0959H283.451V68.7785C283.451 75.1487 284.593 80.0601 286.879 83.5127C289.164 86.9652 292.957 88.6915 298.258 88.6915C301.759 88.6915 304.92 87.7919 307.74 85.9927C310.561 84.1448 312.822 81.2515 314.524 77.3126C316.226 73.3738 317.077 68.2192 317.077 61.849V22.0959H335.166V100.873H317.806V82.3456L318.317 85.628C316.08 90.7825 312.725 94.9159 308.251 98.028C303.826 101.14 298.428 102.696 292.058 102.696Z" fill="black"/>
<path d="M222.69 102.695C216.855 102.695 211.408 101.819 206.351 100.069C201.342 98.2696 197.136 95.5221 193.732 91.8264C190.377 88.0821 188.189 83.2923 187.167 77.4569L204.309 74.1016C204.795 79.2075 206.57 83.0248 209.633 85.5535C212.746 88.0821 216.879 89.3464 222.034 89.3464C227.139 89.3464 231.03 88.228 233.704 85.9911C236.427 83.7542 237.789 81.0797 237.789 77.9675C237.789 75.2444 236.768 72.9832 234.725 71.184C232.732 69.3847 229.522 68.1204 225.097 67.391L217.001 66.0051C214.277 65.5188 211.408 64.8867 208.393 64.1086C205.379 63.282 202.534 62.1149 199.859 60.6074C197.185 59.0514 194.997 56.9604 193.295 54.3345C191.641 51.6599 190.815 48.2803 190.815 44.1956C190.815 38.9924 192.2 34.6159 194.972 31.0661C197.744 27.5163 201.488 24.8418 206.205 23.0425C210.971 21.1947 216.32 20.2708 222.252 20.2708C228.039 20.2708 233.218 21.1461 237.789 22.8966C242.409 24.5986 246.226 27.1029 249.241 30.4096C252.304 33.7163 254.298 37.7767 255.222 42.5909L237.862 46.0921C237.521 43.7579 236.816 41.6426 235.747 39.7462C234.677 37.801 233.072 36.2693 230.932 35.1508C228.841 33.9838 226.07 33.4002 222.617 33.4002C218.581 33.4002 215.25 34.2269 212.624 35.8802C209.998 37.485 208.685 39.7948 208.685 42.8097C208.685 44.8034 209.269 46.4568 210.436 47.7697C211.652 49.034 213.354 50.0795 215.542 50.9062C217.73 51.7329 220.307 52.438 223.274 53.0215L232.027 54.6992C236.16 55.38 240.05 56.5713 243.697 58.2733C247.344 59.9267 250.286 62.2608 252.523 65.2757C254.809 68.2906 255.951 72.2538 255.951 77.1652C255.951 82.6115 254.517 87.2554 251.648 91.097C248.779 94.89 244.84 97.7833 239.831 99.7771C234.823 101.722 229.109 102.695 222.69 102.695Z" fill="black"/>
<path fill-rule="evenodd" clip-rule="evenodd" d="M125.658 96.7335C121.584 107.969 110.911 115.452 98.9597 115.452H0.86737C0.266965 115.452 -0.151105 114.856 0.0535821 114.291L5.43713 99.446C5.56133 99.1035 5.88663 98.8754 6.25092 98.8754H31.544C32.0446 98.8754 32.4408 98.4521 32.4078 97.9527L31.6943 87.1618C31.6639 86.7014 32.0001 86.298 32.4585 86.2449L82.4347 80.4544C83.367 80.3464 83.485 79.0395 82.587 78.7664L36.5612 64.7633C27.4812 62.0007 22.5737 52.1896 25.8088 43.2671L34.7093 18.7193C38.7833 7.48306 49.4563 0 61.4083 0H159.5C160.101 0 160.519 0.596305 160.314 1.16074L154.931 16.0062C154.807 16.3487 154.481 16.5767 154.117 16.5767H128.917C128.417 16.5767 128.02 17 128.053 17.4995L128.767 28.2904C128.797 28.7509 128.461 29.1543 128.003 29.2074L78.0256 34.9978C77.0933 35.1058 76.9753 36.4126 77.8732 36.6859L123.817 50.6665C132.896 53.4295 137.803 63.2406 134.568 72.1629L125.658 96.7335Z" fill="#5F2AF3"/>
</svg>
